<svg version="1.2" xmlns="http://www.w3.org/2000/svg" viewBox="0 0 85 85" width="85" height="85">
	<title>Namami Logo (1)-pdf</title>
	<defs>
		<clipPath clipPathUnits="userSpaceOnUse" id="cp1">
			<path d="m0 0h85v85h-85z"/>
		</clipPath>
	</defs>
	<style>
		.s0 { fill: #66211a } 
		.s1 { fill: none;stroke: #ffffff;stroke-miterlimit:22.92558479309082;stroke-width: 1.8 } 
		.s2 { fill: #e31f24;stroke: #ffffff;stroke-miterlimit:22.92558479309082;stroke-width: 1.2 } 
		.s3 { fill: #ffffff } 
		.s4 { fill: none;stroke: #e31f24;stroke-miterlimit:22.92558479309082;stroke-width: .5 } 
	</style>
	<g id="Page 1" clip-path="url(#cp1)">
		<path id="Path 1" class="s0" d="m42.5 84.4c-23.2 0-41.9-18.7-41.9-41.9 0-23.2 18.7-41.9 41.9-41.9 23.2 0 41.9 18.7 41.9 41.9 0 23.2-18.7 41.9-41.9 41.9zm0-3.8c-21.1 0-38.1-17-38.1-38.1 0-21.1 17-38.1 38.1-38.1 21.1 0 38.1 17 38.1 38.1 0 21.1-17 38.1-38.1 38.1z"/>
		<path id="Path 2" class="s1" d="m42.5 80.6c-21.1 0-38.1-17-38.1-38.1 0-21.1 17-38.1 38.1-38.1 21.1 0 38.1 17 38.1 38.1 0 21.1-17 38.1-38.1 38.1z"/>
		<path id="Path 3" class="s2" d="m42.5 70.3c-15.4 0-27.8-12.4-27.8-27.8 0-15.4 12.4-27.8 27.8-27.8 15.4 0 27.8 12.4 27.8 27.8 0 15.4-12.4 27.8-27.8 27.8z"/>
		<path id="Path 4" fill-rule="evenodd" class="s3" d="m33.1 76.8l1-5.1 1.2 0.2-1 5.1zm3 0.4l0.7-5.1 1.2 0.1 0.6 3.3q0.1-0.8 0.1-1.4 0.1-0.6 0.1-1l0.1-0.8 1.1 0.2-0.7 5.1-1.2-0.1-0.6-3.4q0 0.6-0.1 1.2 0 0.6-0.1 1.2l-0.1 0.9zm5 0.5l-0.2-5.2 1.3-0.1q0.8 0 1.1 0.1 0.4 0.1 0.6 0.4 0.2 0.2 0.2 0.6 0.1 0.4 0.2 1.4 0 1.1-0.1 1.5 0 0.3-0.2 0.6-0.2 0.3-0.5 0.4-0.4 0.2-1.1 0.2zm1.1-4.3l0.1 3.3q0 0 0.1 0 0 0 0.1 0 0.2 0 0.3-0.1 0.1 0 0.2-0.1 0.1-0.1 0.1-0.4 0-0.3 0-1.1v-0.2q-0.1-0.6-0.1-0.9 0-0.2-0.1-0.3-0.1-0.1-0.2-0.1-0.2-0.1-0.4-0.1 0 0-0.1 0 0 0 0 0zm3.8 4.1l-0.4-5.1 1.2-0.1 0.5 5.1zm2.6-0.1l0.1-5.3 1.4-0.3 2.1 4.9-1.2 0.3-0.3-1-1 0.2 0.1 1zm1.1-2.2l0.7-0.1-0.8-2.2zm-24.1-8l-3.2 4-1-0.8 1.2-3.1q-0.4 0.6-0.8 1.1-0.3 0.5-0.6 0.8l-0.5 0.6-0.9-0.6 3.3-4.1 1 0.8-1.3 3.2q0.4-0.5 0.7-1 0.4-0.5 0.7-0.9l0.6-0.7z"/>
		<path id="Path 5" fill-rule="evenodd" class="s3" d="m22.8 64.9l-4.4 2.9-1.1-1 2.9-4.5 0.8 0.8-0.6 0.8 0.7 0.7 0.8-0.6zm-2.4 0.4l-0.5-0.5-1.3 1.8zm-0.8-3.6l-3.3 2.6 0.6 0.7-0.8 0.7-2-2.6 0.8-0.6 0.6 0.8 3.3-2.6zm-1.6-2.2l-4.4 2.8-0.7-1.1 4.4-2.7z"/>
		<path id="Path 6" fill-rule="evenodd" class="s3" d="m14.6 58.9q-0.9 0.5-1.3 0.6-0.4 0.1-0.7 0.1-0.4 0-0.7-0.3-0.3-0.2-0.5-0.7-0.3-0.4-0.3-0.8 0-0.4 0.2-0.8 0.2-0.2 0.5-0.5 0.4-0.2 1.2-0.7 0.8-0.4 1.2-0.5 0.5-0.2 0.8-0.1 0.4 0 0.7 0.3 0.3 0.2 0.5 0.6 0.2 0.5 0.3 0.9 0 0.4-0.2 0.7-0.2 0.3-0.5 0.6-0.4 0.2-1.2 0.6zm-0.6-2.2l-0.9 0.5q-0.7 0.3-0.9 0.5-0.1 0.2 0 0.5 0.2 0.2 0.4 0.2 0.2 0 1-0.4l0.8-0.4q0.8-0.4 0.9-0.6 0.2-0.2 0-0.4-0.1-0.3-0.3-0.3-0.3 0-1 0.4zm0.9-2.7l-4.9 1.6-0.4-1.2 2.7-2q-0.7 0.3-1.3 0.5-0.5 0.2-0.9 0.4l-0.8 0.2-0.3-1 4.9-1.6 0.4 1.2-2.8 2q0.6-0.3 1.2-0.5 0.5-0.2 1.1-0.4l0.8-0.3zm-1.2-3.5h-5.3l-0.3-1.4 4.9-2.2 0.2 1.2-0.9 0.3 0.2 1 1-0.1zm-2.2-1.1l-0.2-0.6-2.1 0.8zm1.1-5.7l0.2 2.6-5.2 0.4v-1.2l4.1-0.3-0.1-1.5zm0-2l-5.1-1.6 0.1-1.4 5.3-0.7-0.1 1.3h-1l-0.1 1 1 0.2zm-1.8-1.7v-0.7l-2.3 0.2zm0.5-2.7l0.3-1.1h0.1q0.4 0.1 0.6 0 0.2 0 0.3-0.3 0-0.1-0.1-0.3-0.1-0.1-0.3-0.2-0.4-0.1-0.8 0.4-0.1 0.1-0.2 0.1v0.1q-0.7 0.6-0.9 0.7-0.3 0.1-0.5 0.1-0.2 0-0.5-0.1-0.7-0.1-1-0.6-0.3-0.5-0.1-1.2 0.2-0.7 0.6-1 0.5-0.3 1.2-0.1 0 0 0.1 0 0 0 0 0l-0.2 1.1h-0.1q-0.3-0.1-0.5 0-0.2 0-0.2 0.2-0.1 0.2 0 0.3 0.1 0.1 0.3 0.2 0.3 0.1 0.8-0.4 0.1-0.1 0.2-0.2 0 0 0.1-0.1 0.5-0.5 0.8-0.6 0.2-0.1 0.5-0.1 0.2 0 0.5 0.1 0.7 0.1 1.1 0.6 0.3 0.5 0.1 1.2-0.2 0.8-0.7 1.1-0.4 0.3-1.2 0.1-0.1 0-0.1 0-0.1 0-0.2 0zm0.9-3.7l0.3-1.1 0.2 0.1q0.4 0.1 0.6 0.1 0.2-0.1 0.3-0.3 0-0.2-0.1-0.3 0-0.2-0.3-0.3-0.3-0.1-0.8 0.3-0.1 0.1-0.2 0.1v0.1q-0.7 0.5-1 0.6-0.2 0-0.5 0-0.2 0-0.5-0.1-0.6-0.2-0.9-0.7-0.2-0.5 0-1.2 0.3-0.7 0.8-0.9 0.4-0.3 1.1 0 0.1 0 0.1 0 0.1 0 0.1 0l-0.4 1.1v-0.1q-0.4-0.1-0.6 0-0.2 0-0.2 0.2-0.1 0.2 0 0.3 0.1 0.1 0.3 0.2 0.3 0.1 0.8-0.3 0.1-0.1 0.2-0.2 0 0 0.1 0 0.6-0.5 0.9-0.6 0.2 0 0.5 0 0.2 0 0.5 0.1 0.7 0.2 1 0.8 0.2 0.5 0 1.2-0.3 0.7-0.8 1-0.5 0.2-1.3 0 0-0.1-0.1-0.1 0 0-0.1 0z"/>
		<path id="Path 7" fill-rule="evenodd" class="s3" d="m12.8 29.4q-0.8-0.4-1.2-0.7-0.3-0.2-0.5-0.5-0.2-0.4-0.1-0.7 0-0.4 0.2-0.9 0.3-0.4 0.6-0.7 0.3-0.2 0.7-0.3 0.3 0 0.7 0.2 0.4 0.1 1.3 0.5 0.8 0.5 1.1 0.7 0.4 0.3 0.5 0.6 0.2 0.3 0.2 0.7 0 0.4-0.3 0.9-0.2 0.4-0.5 0.7-0.3 0.2-0.7 0.2-0.3 0.1-0.7-0.1-0.5-0.1-1.3-0.6zm1.5-1.7l-0.8-0.5q-0.8-0.4-1-0.4-0.3 0-0.4 0.3-0.1 0.2 0 0.4 0.1 0.2 0.9 0.6l0.8 0.5q0.8 0.3 1 0.4 0.2 0 0.4-0.3 0.1-0.2 0-0.4-0.2-0.2-0.9-0.6zm2.4-3.8l0.7-0.9q0 0 0.1 0 0 0.1 0.1 0.1 0.8 0.6 0.9 1.2 0.1 0.6-0.4 1.3-0.3 0.4-0.6 0.6-0.4 0.2-0.8 0.2-0.3 0-0.7-0.2-0.4-0.2-1.1-0.8-0.8-0.5-1.1-0.9-0.3-0.3-0.4-0.5-0.1-0.4-0.1-0.8 0.1-0.4 0.4-0.8 0.5-0.7 1.1-0.7 0.7-0.1 1.4 0.4l0.1 0.1-0.7 0.9q-0.5-0.3-0.7-0.3-0.2 0-0.4 0.2-0.2 0.2 0 0.5 0.1 0.2 1 0.9h0.1q1 0.7 1.3 0.8 0.3 0.1 0.4-0.2 0.2-0.2 0.1-0.4-0.1-0.2-0.5-0.5zm2.8-0.4l-3.9-3.4 0.8-0.9 3.9 3.4z"/>
		<path id="Path 8" fill-rule="evenodd" class="s3" d="m20.6 22.2l-2.7-4.5 1-1 4.4 3-0.9 0.9-0.8-0.7-0.7 0.7 0.6 0.8zm-0.2-2.4l0.5-0.5-1.8-1.4zm3.6-0.6l-2.6-3.3-0.8 0.6-0.6-0.8 2.6-2 0.6 0.8-0.8 0.6 2.6 3.3zm2.2-1.6l-2.8-4.4 1-0.6 2.8 4.4z"/>
		<path id="Path 9" fill-rule="evenodd" class="s3" d="m26.7 14.2q-0.5-0.8-0.6-1.2-0.1-0.5-0.1-0.7 0-0.4 0.3-0.8 0.2-0.3 0.7-0.5 0.4-0.2 0.8-0.2 0.4-0.1 0.8 0.1 0.2 0.2 0.5 0.5 0.2 0.4 0.7 1.2 0.4 0.9 0.5 1.3 0.2 0.4 0.1 0.7 0 0.4-0.3 0.7-0.2 0.3-0.7 0.6-0.4 0.2-0.8 0.2-0.4 0-0.8-0.2-0.2-0.1-0.5-0.5-0.2-0.3-0.6-1.2zm2.2-0.6l-0.5-0.8q-0.4-0.8-0.5-0.9-0.2-0.2-0.5 0-0.2 0.1-0.2 0.3 0 0.3 0.3 1l0.5 0.9q0.4 0.7 0.6 0.9 0.1 0.1 0.4 0 0.3-0.2 0.3-0.4 0-0.2-0.4-1zm2.8 1.1l-1.6-4.9 1.2-0.4 1.9 2.7q-0.3-0.7-0.5-1.3-0.2-0.5-0.3-0.9l-0.3-0.8 1-0.3 1.6 4.9-1.2 0.4-1.9-2.8q0.2 0.6 0.4 1.2 0.3 0.5 0.4 1.1l0.3 0.8zm5.3-4.1q-0.1-1-0.1-1.4 0.1-0.4 0.2-0.7 0.2-0.4 0.5-0.6 0.3-0.2 0.8-0.3 0.5 0 0.9 0.1 0.4 0.1 0.7 0.4 0.1 0.3 0.3 0.7 0.1 0.4 0.2 1.3 0.1 1 0.1 1.4 0 0.4-0.1 0.7-0.2 0.4-0.6 0.6-0.3 0.2-0.8 0.3-0.5 0-0.9-0.1-0.4-0.1-0.6-0.4-0.2-0.3-0.3-0.7-0.1-0.4-0.3-1.3zm2.3 0.2l-0.1-1q-0.1-0.8-0.2-1-0.2-0.2-0.4-0.2-0.3 0.1-0.4 0.3-0.1 0.2 0 1l0.1 1q0.1 0.8 0.3 1 0.1 0.2 0.4 0.2 0.3-0.1 0.3-0.3 0.1-0.2 0-1zm2.3 1.9l0.1-5.2 2.8 0.1v1l-1.6-0.1v1h1.5l-0.1 1.1-1.5-0.1v2.2zm5.4 0.4l1.1-5.1 1.6 0.3v2.3q0 0 0 0.4 0 0.4 0 0.8 0.1-0.2 0.2-0.7 0.2-0.4 0.2-0.4l0.9-2.1 1.6 0.4-1 5.1-1.2-0.3 1-3.9-1.7 3.8-0.9-0.2 0.1-4.1-0.8 3.9z"/>
		<path id="Path 10" fill-rule="evenodd" class="s3" d="m51.9 14.3l2.9-4.4 1.4 0.5-0.9 5.3-1.1-0.5 0.2-1-0.9-0.3-0.5 0.9zm2.1-1.3l0.7 0.3 0.5-2.3z"/>
		<path id="Path 11" fill-rule="evenodd" class="s3" d="m55.7 15.9l2.6-4.5 1.2 0.6q0.5 0.4 0.8 0.6 0.2 0.2 0.3 0.4 0.1 0.2 0.1 0.5-0.1 0.3-0.2 0.6-0.3 0.4-0.5 0.6-0.3 0.2-0.7 0.2 0.4 0.5-0.1 1.4 0 0.1-0.1 0.2-0.4 0.8-0.3 1.1l-1.2-0.7q0-0.1 0.1-0.3 0-0.2 0.1-0.3 0.1-0.2 0.2-0.3 0.1-0.2 0.1-0.2 0.2-0.4 0.2-0.6 0-0.2-0.3-0.4l-0.2-0.1-1 1.8zm2.5-2.1q0 0 0.1 0.1 0 0 0 0 0.4 0.2 0.6 0.1 0.2 0 0.4-0.3 0.1-0.3 0.1-0.5-0.1-0.2-0.4-0.4-0.1 0-0.1 0 0-0.1-0.1-0.1zm1.5 4.5l2.6-3.3-0.8-0.6 0.7-0.8 2.5 2-0.6 0.8-0.8-0.6-2.6 3.3zm2.1 1.7l3.3-4 1 0.8-3.4 4z"/>
		<path id="Path 12" fill-rule="evenodd" class="s3" d="m63.2 21.1l4.7-2.5 0.9 1.1-3.1 4.2-0.8-0.9 0.6-0.8-0.6-0.7-0.9 0.6zm2.5-0.2l0.4 0.6 1.5-1.8zm1.9 5.4l-1.6-2.1 4.2-3.1 0.7 1-3.4 2.4 0.9 1.2zm1.1 1.8l5.1-1.2 0.7 1.3-4.3 3.2-0.5-1.1 0.8-0.5-0.4-0.9-0.9 0.3zm2.4 0.5l0.3 0.7 1.9-1.3z"/>
		<path id="Path 13" fill-rule="evenodd" class="s3" d="m70.3 32l4.9-1.7 0.4 1.3q0.2 0.7 0.3 1 0 0.3-0.1 0.5-0.1 0.3-0.3 0.5-0.2 0.1-0.5 0.3-0.5 0.1-0.8 0.1-0.3-0.1-0.6-0.3-0.1 0.6-1 0.9-0.1 0.1-0.2 0.1-0.9 0.3-1 0.6l-0.4-1.3q0.1-0.1 0.3-0.2 0.1-0.1 0.3-0.1 0.1-0.1 0.3-0.1 0.2-0.1 0.2-0.1 0.5-0.1 0.6-0.3 0.1-0.2 0-0.5l-0.1-0.2-1.9 0.7zm3.2 0.1q0 0 0 0.1 0.1 0 0.1 0 0.1 0.4 0.3 0.5 0.2 0.1 0.5 0 0.3-0.1 0.4-0.3 0.1-0.2 0-0.6 0 0-0.1 0 0-0.1 0-0.1zm-2 4.4l4.2-0.8-0.2-1 1-0.2 0.6 3.2-1 0.2-0.2-1.1-4.1 0.8zm2.1 2.4l0.1 1.2h-0.2q-0.4 0-0.6 0.1-0.1 0.1-0.1 0.4 0 0.2 0.2 0.3 0.1 0.1 0.3 0 0.4 0 0.7-0.6 0.1-0.1 0.1-0.1v-0.1q0.4-0.7 0.7-0.9 0.2-0.2 0.4-0.3 0.2-0.1 0.5-0.1 0.7 0 1.1 0.3 0.4 0.4 0.5 1.1 0 0.7-0.3 1.1-0.4 0.5-1.1 0.5 0 0-0.1 0 0 0 0 0l-0.1-1q0.4-0.1 0.5-0.2 0.2-0.1 0.2-0.3 0-0.2-0.2-0.3-0.1-0.1-0.3-0.1-0.3 0.1-0.6 0.7-0.1 0.1-0.1 0.2-0.1 0-0.1 0.1-0.4 0.7-0.6 0.9-0.2 0.1-0.4 0.2-0.2 0.1-0.5 0.1-0.8 0.1-1.2-0.3-0.5-0.4-0.6-1.1 0-0.8 0.3-1.2 0.4-0.5 1.2-0.5 0.1-0.1 0.1-0.1 0.1 0 0.2 0zm-1.5 5.9l5.1 0.9-0.3 1.7h-2.2q0 0-0.5 0-0.4 0-0.8 0 0.3 0.1 0.8 0.2 0.4 0.2 0.4 0.2l2.1 0.8-0.3 1.7-5.1-0.9 0.2-1.2 3.9 0.8-3.8-1.5 0.2-0.9 4.1-0.1-4-0.6z"/>
		<path id="Path 14" fill-rule="evenodd" class="s3" d="m71.3 49.8l4.6 2.7-0.4 1.3-5.3-0.5 0.4-1.2 0.9 0.2 0.3-0.9-0.9-0.4zm1.4 2l-0.2 0.6 2.3 0.4zm-1.1 2.5l-0.5 1h-0.1q-0.4-0.2-0.6-0.2-0.2 0-0.3 0.2-0.1 0.2 0 0.4 0.1 0.1 0.3 0.2 0.3 0.2 0.8-0.2 0.1 0 0.2-0.1 0.8-0.5 1.1-0.5 0.2-0.1 0.5 0 0.2 0 0.5 0.1 0.6 0.3 0.8 0.8 0.2 0.5-0.1 1.2-0.3 0.6-0.8 0.8-0.5 0.3-1.2 0 0-0.1-0.1-0.1 0 0 0 0l0.4-1h0.1q0.3 0.2 0.5 0.1 0.2 0 0.3-0.2 0-0.1 0-0.3-0.1-0.1-0.3-0.2-0.3-0.1-0.9 0.2-0.1 0.1-0.1 0.2-0.1 0-0.2 0-0.6 0.5-0.9 0.5-0.2 0-0.5 0-0.2 0-0.5-0.2-0.7-0.3-0.9-0.8-0.2-0.6 0.1-1.2 0.3-0.8 0.9-1 0.5-0.2 1.2 0.2 0.1 0 0.1 0 0.1 0 0.2 0.1zm-3.6 3.3l3.6 2.2 0.5-0.9 0.8 0.6-1.7 2.7-0.8-0.5 0.5-0.9-3.5-2.2zm-1.5 2.3l4.1 3.2-1.8 2.3-0.8-0.7 1-1.2-0.7-0.6-1 1.2-0.8-0.7 0.9-1.2-0.9-0.7-1 1.3-0.8-0.6z"/>
		<path id="Path 15" fill-rule="evenodd" class="s3" d="m64.3 62.7l3.6 3.7-0.9 1q-0.5 0.4-0.8 0.6-0.3 0.2-0.5 0.2-0.3 0-0.5-0.1-0.3-0.1-0.6-0.4-0.3-0.3-0.4-0.6-0.1-0.4 0-0.7-0.5 0.2-1.2-0.5-0.1 0-0.2-0.2-0.7-0.6-1-0.6l1-0.9q0.2 0 0.3 0.1 0.1 0.2 0.3 0.3 0.1 0.1 0.2 0.2 0.1 0.2 0.1 0.2 0.4 0.3 0.6 0.4 0.2 0 0.4-0.2l0.2-0.2-1.4-1.5zm1.2 3q0 0.1-0.1 0.1 0 0 0 0-0.3 0.3-0.3 0.5 0 0.2 0.3 0.5 0.2 0.2 0.4 0.2 0.2 0 0.5-0.2 0-0.1 0-0.1 0.1 0 0.1 0zm-3 0.9l-0.9 0.7-0.1-0.1q-0.3-0.3-0.5-0.4-0.2 0-0.3 0.1-0.2 0.1-0.2 0.3 0 0.2 0.1 0.4 0.3 0.2 0.9 0.2 0.1 0 0.2 0h0.1q0.8-0.1 1.1 0 0.2 0 0.4 0.2 0.3 0.1 0.4 0.3 0.5 0.6 0.4 1.1-0.1 0.6-0.6 1-0.6 0.5-1.1 0.4-0.6 0-1-0.6-0.1 0-0.1-0.1 0 0 0 0l0.8-0.7q0.3 0.3 0.4 0.4 0.2 0 0.4-0.1 0.1-0.1 0.1-0.3 0-0.1-0.1-0.3-0.2-0.2-0.9-0.2-0.1 0.1-0.2 0.1 0 0-0.1 0-0.8 0.1-1.1 0-0.2-0.1-0.4-0.2-0.2-0.2-0.4-0.4-0.4-0.6-0.4-1.2 0.1-0.6 0.6-1 0.7-0.5 1.2-0.5 0.6 0.1 1.1 0.7 0 0.1 0 0.1 0.1 0 0.2 0.1zm-25.6-41.1h1.1q0.2 0 0.3 0c1.1 0 1.4 0.1 2.2 0.9 0.5 0.5 0.4 0.5 0.5 1.1 0.1 0.7 0.2 0.7 0.1 1.5-0.3 2.3 0.1 1.3 0.8 2 1 0.9 0.7 1 1.2 0.5 0.2-0.2 0.3-0.2 0.6-0.3 0.7-0.2 0.3-1.9 0.3-2.6 0-1 0-1.6 0.8-2.4 0.6-0.5 0.9-0.7 1.4-0.7h2.3c0.4 0.1 0.6 0.3 1.1 0.8 0.3 0.3 0.6 0.5 0.7 0.9 0.1 0.4 0.4 0.8 0.4 1.2-0.1 0.6-0.5 1.8-0.9 2.3-0.4 0.6-1.1 0.8-1.6 1.5 0.6 0.5 1.4 0.9 2 1.2 0.6 0.3 0.8 0 1.3-0.2 0.4-0.1 0.8-0.2 1.2-0.3 0.9-0.2 1.1-1 2-1.1 0.8-0.2 0.5-0.1 1.2-0.5 0.5-0.2 2.2-2 2.5-2.2 0.5-0.3 0.7 0 1-0.7 0.1-0.3 0.2-0.7 0.5-0.9 0.6-0.6 1.7-0.3 2.3 0.3 0.3 0.2 0.4 0.6 0.6 1 0.2 0.3 0.2 0.2 0.3 0.5q0.1 0.3 0.2 0.6c0.1 0.2 0.1 0.2 0.1 0.5v1.2q0 0.3-0.1 0.4c-0.4 0.6-1.2 0.5-1.7 0.1-0.5-0.3-0.6-0.3-0.9 0.1-0.3 0.4-0.2 0.7-0.6 1.1-0.7 0.9-1.4 1.7-2.2 2.5-0.6 0.8-1.7 1.6-2.3 2.5-0.3 0.4-1.1 1.1-1.5 1.7-0.2 0.4-0.2 0.5-0.6 0.9-0.2 0.2-0.5 0.7-0.7 1-0.3 0.5 0.1 0.1-0.5 1-0.1 0.2-0.4 0.8-0.5 1.1-0.2 0.4-0.3 0.8-0.5 1.1-0.4 0.8-0.3 1.4-0.8 2.3-0.2 0.4-0.1 0.8-0.3 1.3-0.6 1.3-0.1 1-0.8 2.4-0.2 0.3-0.2 0.7-0.4 1.2-0.3 0.7-0.5 1.5-1 2.2-0.7 1-0.4 1.4-0.6 2.5-0.1 0.9 0.6 2.3-0.3 2.4h-2.3c-0.5 0-1.1 0-1.8-0.1-0.2 0-0.4 0.1-0.6 0.1h-4.3q-0.2 0-0.3-0.2c-0.3-0.4-0.1-1-0.1-1.4 0-0.6 0-2.4-0.2-2.9-0.2-0.5-0.4-0.5-0.7-0.8-0.4-0.4-0.3-0.8-0.4-1.2-0.2-0.4-0.4-0.8-0.4-1.2-0.2-0.8-0.3-0.6-0.5-1.1-0.2-0.5-0.1-0.8-0.3-1.3-0.7-1.6-0.3-1.6-0.8-2.4-0.2-0.4-0.2-0.8-0.3-1.2-0.2-0.4-0.4-0.7-0.5-1.1-0.2-0.9-0.2-0.5-0.5-1.1-0.2-0.4-0.2-0.7-0.5-1.1-0.7-1.2-1.6-2.8-2.6-3.8-0.3-0.3-0.4-0.5-0.6-0.9-0.2-0.2-0.6-0.6-0.8-0.8-1-1.2-3.3-3.3-3.8-4.1-0.3-0.3-0.6-0.6-0.8-0.9-0.2-0.3-0.1-1.1-0.6-0.6-0.9 0.9-1.9 0.4-2-0.1v-1.3q0-0.2 0.1-0.3c0.1-0.6 0.3-0.7 0.5-1.1 0.1-0.4 0.2-0.8 0.5-1.1 0-0.1 0.7-0.6 0.8-0.7 0.4-0.2 0.9-0.1 1.3 0.1 1 0.5 0.5 1.6 1.6 1.6 0.7 0 0.6-0.1 1.2 0.4q0.4 0.3 0.9 0.7c0.5 0.4 1 1 1.6 1.4 0.6 0.4 1.2 0.3 2.2 1.1 0.8 0.8 1.2 0.8 2.3 0.9 0.5 0 0.7-0.2 1.2-0.4 0.4-0.1 1.2 0 1.3-0.3 0.1-0.3-0.5-0.6-0.7-0.8-1.2-1.1-1.6-1.7-1.6-3.2 0.1-0.8 0.5-1.6 1.1-2.1 0.5-0.4 0.8-0.5 1.2-0.6zm7.6 32.9c2.3 0.1 1.9-0.2 1.9-1q0-0.8 0-1.7c0-0.4 0.2-1-0.2-1.3-0.5 0.2-0.3 1.5-0.7 2.3 0 0.1-0.5 0.7-0.6 0.8-0.2 0.4-0.7 0.5-0.8 0.7 0.2 0.2 0.1 0.2 0.4 0.2zm-3.3-0.5c-0.4-0.3-1.1-1.1-1.2-1.6-0.1-0.5-0.3-1.1-0.3-1.5-0.1-0.9-0.9-0.8-1-0.4 0 0.2 0.1 1.4 0.2 1.7 0.4 2-0.8 2.3 1.2 2.3 0.4 0 1.3 0 1.7-0.2-0.1-0.1-0.4-0.2-0.6-0.3zm4.2-17c-0.5-0.3-1.6-1.3-1.9-1.8-0.9-1-1-1.4-1.3-0.9-0.2 0.4-1.1 1.2-1.4 1.4-1.9 1.3-1.2 1.3-1.4 2.2-0.6 2.5 0.3 3.2 0.5 4.7 0 0.3 0.1 0.3 0.2 0.6 0.2 0.5 0.2 1.3 0.7 2.1 0.3 0.5 0.1 0.8 0.4 1.4 0.7 1.1 0.3 0.8 0.5 1.4 0.2 0.6 0.5 0.5 0.4 1.3 0 0.8-0.6 0.6-1 0.9-0.3 0.1-0.1 0.4-0.1 0.7 0 0.3-0.1 0.5 0.1 0.8 0.3 0.6 1.4 1.7 2.2 1.4 0.6-0.2 1.3-1.5 1.4-2.1 0.2-1.1-0.5-0.9-0.9-0.9-2.3-0.1-0.6-2-0.4-2.7 0.2-0.8 0.4-0.9 0.6-1.2 0.2-0.3 0.1-0.5 0.2-0.8 0.1-0.3 0.2-0.2 0.6-1.2 0.1-0.5 0.3-0.6 0.5-1.3 0.1-0.4 0.3-1 0.4-1.4 0.4-0.9 0.1-2.4 0.2-3.3 0.1-0.5-0.1-1.1-0.5-1.3zm12.6-9.6c-1.9 1.6-1.8 2.1-3.7 3.3-1 0.6-1.6 1.6-2.6 2.2-0.3 0.1-1.2 0.8-1.3 1.1-0.4 0.8 0.4 0.8 0.8 1.2 0.4 0.5 0.5 1.4 0.3 2-0.1 0.5-1.8 1.8-2.2 2-0.2 0-0.2 0-0.4 0.1-0.2 0.2-0.4 0.4-0.7 0.5-0.4 0.2-0.5 0.1-0.7 0.5-0.1 0.3-0.2 0.6-0.3 0.9-0.1 0.4-0.2 0.5-0.3 0.9-0.3 1.8 0 0.5-0.5 1.8-0.2 0.3-0.1 0.6-0.3 0.9-0.2 0.4-0.2 0.3-0.4 0.8-0.1 0.3-0.2 0.5-0.4 0.8-0.2 0.3-0.2 0.5-0.3 0.8-0.2 0.4-0.9 1.3-0.5 1.7 0.1 0.1 1.6 0.3 1.9 0.4 0.8 0 1.1-0.6 1.2-1.2 0.2-0.8 0.6-1 0.6-1.8 0.1-0.8 0.3-0.4 0.6-1.8 0.1-0.8 0.5-1.1 0.6-1.8 0.1-0.7 0.4-1 0.6-1.8 0.1-0.4 0.2-0.4 0.4-0.8 0.1-0.3 0.1-0.6 0.2-0.9 0.1-0.3 0.3-0.4 0.5-0.7 0.1-0.5 0-0.5 0.3-0.9 0.3-0.2 0.3-0.4 0.5-0.7 0.4-0.6 1-1.5 1.5-2 0.8-1.1 0.9-1.1 1.6-2 0.2-0.2 0.4-0.3 0.6-0.5 0.2-0.2 0.5-0.4 0.6-0.6 0.2-0.3 0.3-0.5 0.5-0.7 0.5-0.5 0.7-0.7 1.1-1.3 0.2-0.3 1-1 1-1.3 0 0 0-1.8-0.8-1.1zm-32.3 0.2c-0.2 0.4 0.8 1 1 1.3 0.5 0.4 0.8 0.9 1.2 1.3 0.4 0.4 0.7 0.8 1.1 1.2q0.6 0.7 1.2 1.3c0.4 0.4 0.7 0.9 1.1 1.4 0.3 0.4 0.8 1 1 1.4 0.2 0.5 0.7 1 1 1.5 0.5 1 0.3 0.2 0.9 1.6 0.1 0.3 0.3 0.3 0.4 0.8 0.1 0.6 0.2 0.4 0.4 0.8 0.1 0.3 0.2 0.7 0.2 1 0.1 0.4 0.3 0.5 0.4 0.8 0.1 0.3 0.1 0.7 0.2 1 0.3 0.9 0.4 0.7 0.6 1.9 0.1 0.5 0.1 0.5 0.3 0.9 0.4 0.8-0.2 0.5 0.6 1.8 0.4 0.7 0 1.4 1 1.5 0.3 0 1.8-0.1 2-0.3 0.3-0.3 0.2-0.5 0-0.8-0.3-0.5-0.2-0.4-0.3-0.9-0.1-0.3-0.3-0.6-0.4-0.9-0.1-0.2-0.2-0.6-0.3-0.9-0.1-0.4-0.3-0.6-0.4-0.9-0.1-0.4-0.1-0.7-0.1-1-0.1-0.3-0.3-0.6-0.4-0.9-0.1-0.2 0-0.7-0.1-1-0.7-2.9-1-2-2.2-2.8-0.2-0.2-0.4-0.4-0.7-0.5-0.5-0.2-0.4-0.2-0.7-0.5-0.6-0.5-0.7-0.5-1.2-1.2-0.9-1.3 0.6-2.2 0.7-2.5 0.1-0.2 0.2-0.8 0.1-1-0.2-0.9-0.8-0.6-1.4-1-1.3-1.1-0.5-0.9-2.5-2.4-0.9-0.8-1.6-1.7-1.8-1.9-0.5-0.4-1.5-1.4-2-1.6-0.3 0.3-0.8 1.1-0.9 1.5zm26.5 3c-0.6-0.2-1.9 0.3-1.9 1.1 0.3-0.1 2-0.6 1.9-1.1zm-4-0.7c-0.3-0.1-0.3-0.3-0.7-0.3-0.3 0-0.3 0.2-0.6 0.3-0.3 0.2-1.2 0.2-1.6-0.1-0.9-0.9-1.2-1.4-1.5-1.1-0.6 0.8-0.4 1.5-0.5 2.3-0.1 0.5 0 0.5 0 0.9 0.1 1-0.3 0.4 0.8 1.9 0.7 0.8 1 1.3 1.8 1.9 0.9 0.7 1.5 0.2 2-0.2 0.3-0.2 1.3-0.2 0.7-1.7-0.1-0.3-0.6-0.4-0.9-0.9-0.6-1 0.8-1.1 1.4-2.2 0.3-0.4-0.6-0.7-0.9-0.8zm-14.5 0.9c0.4 0.3 0.5 0.5 1 0.2 0-0.3-0.1-0.4-0.7-0.8-0.3-0.2-0.7-0.3-1-0.1 0 0.3 0.4 0.6 0.7 0.7zm3.3 0c0.6 0.2 0.6 1 0.2 1.3-0.1 0.2-0.4 0.2-0.6 0.3-0.3 0.2-0.3 0.3-0.5 0.4-0.5 0.5-0.4 1-0.1 1.3 0.2 0.2 1.4 0.8 1.7 1 0.2 0.2 0.5 0.2 0.7 0.3 0.4 0.1 0.3 0.1 0.7-0.1 0.3-0.1 1.3-1 1.5-1.3 1.2-1.5 1.2-0.7 1.2-2.5 0-0.6 0.2-3.2-0.6-3.1-0.4 0.1-0.8 0.6-1.1 0.9-0.2 0.2-1 0.4-1.4 0.4-0.7 0.1-0.8-0.3-1.6-0.1-0.4 0.1-1.1 0.3-1.3 0.6 0.4 0.7 1.1 0.6 1.2 0.6zm13.3 5.3c-0.6-0.7-1.1 0.3-1.9 0.7-0.3 0.2-0.9 0.1-1.4 1-0.2 0.4 0.2 1 0.5 0.8 0.3-0.2 0.3-0.2 0.6-0.3 0.2-0.1 0.3-0.1 0.5-0.3 0.4-0.3 0.7-0.3 1-0.5 0.2-0.1 0.3-0.3 0.5-0.4 0.2-0.2 0.3-0.2 0.3-0.4 0.1-0.3 0.1-0.4-0.1-0.6zm-15.4 0.2c0.1 0.1 0.3 0.2 0.4 0.3 0.8 0.5 0.9 0.7 1.6 1 0.9 0.4 1 1 1.3-0.1 0.3-0.9-1.1-1.1-1.6-1.5-0.3-0.2-0.7-0.4-1-0.6-0.3-0.2-0.4-0.3-0.7-0.2-0.1 0.1-0.3 0.4-0.3 0.5 0 0.1 0.2 0.5 0.3 0.6zm25.4-10.7c-0.2 0.3-0.8 0.5-0.5 1 0.3 0.5 0.8-0.1 1.1-0.1 1-0.2 0.8 0.2 1.2 0.4 0-0.9-0.2-0.6-0.4-1.3-0.2-0.5-0.2-0.6-0.7-0.9-0.3 0.2-0.5 0.6-0.7 0.9zm-37 0.2c0.8-0.2 1 0.5 1.4 0.3 0.2-0.1 0.3-0.4 0.3-0.6-0.4-0.3-0.5-0.6-0.7-1-0.4-1-1.5 0.9-1.5 1.7 0.1-0.1 0.5-0.4 0.5-0.4zm16.5 0.8c0-0.3-0.1-0.5-0.2-0.8-0.1-0.3-0.2-0.3-0.5-0.4-0.4-0.4-1-1.4-1.7-0.9-0.5 0.4-1.2 0.3-1.2 0.8 0 0.6 0.9 1.3 1.3 1.6 0.5 0.4 0.9 1.4 1.4 1.6 1.3-0.9 1-1.2 0.9-1.9zm7.4 0.8c0-0.1 0.4-0.5 0.4-0.5 0.3-0.2 0.4-0.2 0.6-0.4 0.2-0.3 0.8-0.8 0.8-1.2 0-0.4-0.4-0.4-1.2-0.8-0.5-0.3-0.8 0.1-1.3 0.4-1 0.7-1.1 1-1.1 1.9 0 0.3-0.1 0.7-0.1 0.8 0 0.4 0.6 0.9 1 1 0.4-0.3 0.6-0.8 0.9-1.2zm-1.9-3.3c0.1-0.1 0.8-0.6 0.9-0.7 0.4-0.2 0.9-0.3 1.3-0.3 0.2 0 1.1 0.3 1.2 0.3 0-0.2-0.6-0.5-0.8-0.6-0.3-0.2-0.8-0.4-1.1-0.2-0.4 0.1-1 0.6-1.2 1-0.1 0.1-0.1 0.1-0.2 0.2l-0.1 0.2zm-8.2-1.3c-0.4 0.3-0.6 0.4-0.8 0.8 0.5-0.3 1.4-0.7 2-0.3 0.3 0.1 0.5 0.2 0.8 0.4 0.6 0.3 0.5 0.5 0.7 0.4 0.1-0.3-1.5-2.2-2.7-1.3z"/>
		<path id="Path 16" fill-rule="evenodd" class="s4" d="m36.9 25.6h1.2q0.1 0 0.3 0c1.1 0 1.4 0 2.2 0.9 0.5 0.5 0.4 0.4 0.5 1.1 0.1 0.7 0.2 0.6 0.1 1.4-0.3 2.3 0.1 1.4 0.8 2.1 1 0.8 0.7 1 1.2 0.4 0.2-0.2 0.3-0.1 0.6-0.2 0.7-0.3 0.3-2 0.3-2.6-0.1-1.1 0-1.7 0.8-2.4 0.6-0.6 0.9-0.7 1.4-0.7h2.3c0.3 0 0.6 0.2 1.1 0.7 0.3 0.3 0.6 0.5 0.7 0.9 0.1 0.4 0.4 0.9 0.3 1.3 0 0.6-0.4 1.7-0.8 2.3-0.4 0.5-1.1 0.7-1.6 1.5 0.6 0.4 1.4 0.8 2 1.2 0.6 0.2 0.8 0 1.3-0.2 0.4-0.1 0.8-0.2 1.2-0.3 0.9-0.3 1.1-1.1 2-1.2 0.8-0.1 0.5-0.1 1.2-0.4 0.5-0.3 2.2-2 2.5-2.2 0.5-0.3 0.7-0.1 0.9-0.7 0.2-0.4 0.3-0.7 0.6-1 0.6-0.6 1.7-0.2 2.3 0.3 0.3 0.3 0.4 0.7 0.6 1 0.2 0.3 0.1 0.2 0.3 0.6q0 0.3 0.1 0.5c0.2 0.3 0.2 0.3 0.2 0.5v1.3q0 0.2-0.1 0.3c-0.5 0.6-1.2 0.5-1.7 0.2-0.6-0.4-0.6-0.4-0.9 0.1-0.4 0.4-0.3 0.7-0.6 1-0.7 0.9-1.5 1.7-2.2 2.6-0.6 0.8-1.7 1.6-2.3 2.4-0.3 0.5-1.1 1.1-1.5 1.7-0.3 0.5-0.2 0.6-0.6 1-0.2 0.1-0.6 0.7-0.7 0.9-0.3 0.5 0.1 0.1-0.5 1-0.2 0.2-0.4 0.8-0.5 1.1-0.2 0.4-0.3 0.8-0.5 1.2-0.4 0.8-0.4 1.4-0.8 2.3-0.3 0.4-0.1 0.7-0.3 1.3-0.7 1.3-0.1 1-0.9 2.3-0.2 0.4-0.1 0.8-0.3 1.2-0.3 0.8-0.6 1.6-1 2.2-0.7 1.1-0.5 1.4-0.6 2.6-0.1 0.8 0.6 2.2-0.3 2.3h-2.3c-0.6 0-1.1 0-1.8 0-0.2 0-0.4 0-0.6 0h-4.3q-0.2 0-0.4-0.2c-0.2-0.3-0.1-0.9 0-1.4 0-0.5 0-2.4-0.2-2.9-0.2-0.5-0.4-0.4-0.7-0.8-0.4-0.4-0.3-0.7-0.5-1.2-0.1-0.4-0.3-0.7-0.4-1.2-0.1-0.8-0.2-0.5-0.4-1.1-0.2-0.4-0.1-0.8-0.3-1.2-0.7-1.6-0.3-1.6-0.8-2.4-0.2-0.5-0.2-0.8-0.3-1.3-0.2-0.4-0.4-0.7-0.5-1.1-0.2-0.8-0.2-0.5-0.5-1.1-0.2-0.4-0.2-0.6-0.5-1.1-0.7-1.2-1.6-2.7-2.6-3.7-0.3-0.4-0.4-0.6-0.7-0.9-0.1-0.3-0.5-0.6-0.7-0.9-1-1.2-3.3-3.2-3.9-4-0.2-0.3-0.5-0.7-0.7-0.9-0.2-0.3-0.1-1.1-0.6-0.6-0.9 0.9-2 0.3-2-0.2v-1.2q0-0.2 0-0.4c0.2-0.5 0.4-0.6 0.6-1.1 0.1-0.3 0.2-0.7 0.4-1 0.1-0.1 0.8-0.7 0.9-0.7 0.4-0.2 0.9-0.2 1.3 0 1 0.6 0.5 1.6 1.6 1.6 0.7 0 0.6 0 1.2 0.4q0.4 0.4 0.9 0.7c0.5 0.5 1 1.1 1.6 1.5 0.5 0.3 1.2 0.3 2.1 1.1 0.9 0.7 1.3 0.7 2.4 0.8 0.5 0.1 0.7-0.1 1.2-0.3 0.4-0.1 1.2 0 1.3-0.3 0.1-0.3-0.5-0.7-0.7-0.9-1.3-1-1.6-1.6-1.6-3.2 0-0.8 0.5-1.5 1.1-2 0.5-0.4 0.8-0.6 1.1-0.6zm7.3 32.7c0.1-0.3 0.5-0.4 0.8-0.7 0.1-0.2 0.5-0.7 0.6-0.9 0.3-0.7 0.2-2.1 0.7-2.2 0.4 0.2 0.1 0.9 0.1 1.3q0 0.8 0 1.7c0 0.7 0.5 1-1.8 0.9-0.3 0-0.2 0-0.4-0.1zm-2.3 0c-0.4 0.2-1.3 0.1-1.7 0.1-2 0-0.8-0.2-1.2-2.2-0.1-0.3-0.2-1.5-0.2-1.7 0.1-0.4 0.9-0.6 1 0.3 0 0.4 0.2 1.1 0.3 1.5 0.1 0.5 0.8 1.3 1.2 1.6 0.2 0.2 0.5 0.3 0.6 0.4zm4.1-16.1c-0.2 1 0.2 2.4-0.2 3.4-0.1 0.4-0.4 0.9-0.4 1.3-0.2 0.8-0.4 0.8-0.6 1.3-0.3 1.1-0.4 1-0.5 1.3-0.1 0.2-0.1 0.4-0.2 0.7-0.2 0.4-0.4 0.5-0.6 1.3-0.3 0.7-1.9 2.6 0.4 2.6 0.4 0 1-0.1 0.9 0.9-0.1 0.7-0.8 2-1.5 2.2-0.7 0.2-1.8-0.8-2.1-1.5-0.2-0.2-0.1-0.5-0.1-0.8-0.1-0.3-0.2-0.5 0.1-0.7 0.4-0.3 1-0.1 1-0.8 0.1-0.9-0.2-0.8-0.4-1.4-0.2-0.6 0.2-0.2-0.5-1.4-0.4-0.6-0.1-0.9-0.4-1.4-0.5-0.7-0.5-1.6-0.7-2-0.2-0.3-0.2-0.3-0.3-0.7-0.1-1.5-1-2.2-0.4-4.6 0.2-1-0.5-0.9 1.4-2.2 0.3-0.2 1.1-1.1 1.3-1.4 0.3-0.6 0.5-0.1 1.3 0.9 0.4 0.5 1.5 1.4 2 1.7 0.4 0.2 0.6 0.9 0.5 1.3zm12.9-9.7c-0.1 0.3-0.8 0.9-1 1.3-0.4 0.6-0.6 0.8-1.1 1.3-0.2 0.2-0.3 0.4-0.5 0.6-0.1 0.2-0.4 0.4-0.6 0.6-0.2 0.2-0.4 0.4-0.6 0.6-0.7 0.8-0.9 0.9-1.6 1.9-0.5 0.6-1.1 1.4-1.5 2.1-0.2 0.2-0.2 0.5-0.5 0.7-0.3 0.4-0.2 0.4-0.4 0.8-0.1 0.3-0.3 0.5-0.4 0.8-0.1 0.3-0.1 0.5-0.3 0.9-0.1 0.3-0.2 0.4-0.3 0.8-0.2 0.7-0.5 1-0.6 1.8-0.1 0.7-0.5 1-0.6 1.7-0.3 1.5-0.5 1.1-0.6 1.9-0.1 0.8-0.4 1-0.6 1.7-0.2 0.7-0.4 1.2-1.2 1.2-0.3 0-1.8-0.2-1.9-0.4-0.4-0.3 0.3-1.3 0.5-1.6 0.1-0.4 0.1-0.5 0.3-0.8 0.2-0.3 0.3-0.5 0.4-0.9 0.2-0.5 0.2-0.3 0.4-0.7 0.2-0.3 0.1-0.6 0.2-1 0.6-1.3 0.3 0 0.6-1.7 0.1-0.5 0.2-0.6 0.3-0.9 0.1-0.3 0.1-0.7 0.3-1 0.1-0.4 0.3-0.3 0.7-0.4 0.3-0.1 0.5-0.3 0.7-0.5 0.2-0.1 0.2-0.1 0.4-0.2 0.4-0.2 2-1.4 2.2-2 0.1-0.6 0.1-1.4-0.3-1.9-0.4-0.4-1.2-0.5-0.8-1.3 0.1-0.2 1-0.9 1.3-1.1 1-0.5 1.6-1.6 2.5-2.1 2-1.2 1.9-1.8 3.8-3.4 0.8-0.7 0.8 1.2 0.8 1.2zm-32.2-2.4c0.5 0.2 1.5 1.1 2 1.6 0.2 0.1 0.9 1.1 1.8 1.8 1.9 1.5 1.2 1.3 2.5 2.4 0.6 0.5 1.2 0.2 1.4 1.1 0.1 0.2 0 0.8-0.1 1-0.1 0.2-1.6 1.2-0.7 2.4 0.4 0.7 0.6 0.7 1.1 1.3 0.4 0.3 0.3 0.2 0.8 0.4 0.2 0.2 0.5 0.4 0.7 0.5 1.2 0.8 1.5-0.1 2.2 2.8 0 0.3 0 0.8 0.1 1.1 0.1 0.3 0.3 0.5 0.3 0.8 0.1 0.4 0.1 0.7 0.2 1.1 0.1 0.3 0.3 0.5 0.4 0.9 0.1 0.2 0.2 0.7 0.2 0.9 0.2 0.3 0.4 0.5 0.5 0.8 0.1 0.5 0 0.4 0.3 0.9 0.1 0.3 0.3 0.5 0 0.8-0.2 0.2-1.7 0.3-2 0.3-1-0.1-0.7-0.8-1-1.4-0.8-1.4-0.2-1.1-0.6-1.9-0.2-0.4-0.3-0.3-0.3-0.8-0.2-1.3-0.3-1-0.6-2-0.1-0.3-0.1-0.6-0.2-0.9-0.1-0.4-0.3-0.4-0.4-0.9-0.1-0.2-0.2-0.7-0.3-0.9-0.1-0.5-0.2-0.3-0.3-0.9-0.1-0.5-0.3-0.4-0.5-0.8-0.6-1.3-0.3-0.5-0.8-1.6-0.3-0.5-0.8-1-1-1.4-0.2-0.5-0.7-1.1-1-1.4-0.4-0.5-0.7-1-1.1-1.4q-0.6-0.7-1.2-1.3c-0.4-0.4-0.7-0.8-1.1-1.3-0.4-0.4-0.8-0.9-1.2-1.3-0.2-0.2-1.2-0.8-1.1-1.2 0.2-0.5 0.7-1.2 1-1.5zm23.6 5.6c0-0.9 1.4-1.3 2-1.1 0 0.5-1.6 1-2 1.1zm-1.1-1c-0.6 1.1-2 1.1-1.4 2.1 0.2 0.6 0.8 0.7 0.9 0.9 0.6 1.5-0.4 1.6-0.7 1.8-0.5 0.4-1.1 0.9-2 0.2-0.8-0.7-1.2-1.1-1.8-2-1.2-1.5-0.7-0.9-0.8-1.9 0-0.4-0.1-0.4 0-0.8 0.1-0.8-0.2-1.5 0.5-2.3 0.3-0.4 0.6 0.2 1.5 1 0.4 0.3 1.3 0.4 1.6 0.2 0.3-0.1 0.3-0.3 0.6-0.3 0.3-0.1 0.4 0.1 0.7 0.2 0.2 0.2 1.1 0.4 0.9 0.9zm-16.1-0.7c0.3-0.2 0.7-0.1 1 0.2 0.6 0.4 0.7 0.4 0.7 0.8-0.5 0.2-0.6 0-1-0.2-0.3-0.2-0.7-0.4-0.7-0.8zm2.8 0.1c0.2-0.3 0.8-0.4 1.2-0.5 0.9-0.2 1 0.1 1.7 0.1 0.4 0 1.2-0.2 1.4-0.5 0.3-0.2 0.7-0.8 1.1-0.8 0.8-0.1 0.6 2.5 0.6 3 0 1.9 0 1.1-1.2 2.6-0.2 0.2-1.2 1.1-1.5 1.3-0.4 0.1-0.3 0.2-0.7 0-0.3 0-0.5-0.1-0.7-0.2-0.3-0.2-1.5-0.8-1.8-1.1-0.2-0.2-0.3-0.8 0.2-1.2 0.2-0.2 0.2-0.3 0.5-0.4 0.2-0.1 0.4-0.2 0.6-0.4 0.3-0.3 0.4-1.1-0.2-1.2-0.2 0-0.8 0-1.2-0.7zm14.6 6.5c-0.1 0.3-0.1 0.3-0.3 0.5-0.2 0.1-0.3 0.2-0.5 0.3-0.4 0.2-0.6 0.3-1 0.6-0.2 0.2-0.3 0.2-0.6 0.2-0.3 0.1-0.2 0.2-0.5 0.3-0.3 0.2-0.7-0.3-0.5-0.7 0.5-0.9 1.1-0.9 1.4-1 0.8-0.4 1.3-1.4 1.9-0.7 0.2 0.2 0.2 0.3 0.1 0.5zm-15.8-0.9c0-0.1 0.2-0.4 0.3-0.5 0.3-0.1 0.4 0 0.6 0.1 0.3 0.3 0.7 0.4 1.1 0.6 0.5 0.4 1.9 0.7 1.6 1.6-0.3 1.1-0.4 0.4-1.3 0-0.7-0.3-0.8-0.5-1.6-0.9-0.1-0.1-0.4-0.2-0.5-0.3 0-0.1-0.2-0.5-0.2-0.6zm26.4-11c0.5 0.2 0.5 0.3 0.7 0.9 0.2 0.7 0.4 0.4 0.4 1.2-0.4-0.1-0.2-0.6-1.2-0.4-0.3 0.1-0.8 0.7-1.1 0.2-0.3-0.5 0.3-0.7 0.5-1 0.2-0.3 0.4-0.7 0.7-0.9zm-38.2 1.4c-0.1-0.8 1-2.7 1.5-1.7 0.1 0.5 0.3 0.7 0.7 1 0 0.3-0.1 0.5-0.3 0.7-0.4 0.2-0.6-0.6-1.4-0.4-0.1 0.1-0.4 0.3-0.5 0.4zm16.1 2.3c-0.5-0.2-0.9-1.1-1.4-1.5-0.4-0.4-1.3-1-1.3-1.6 0-0.5 0.7-0.5 1.2-0.8 0.7-0.6 1.3 0.5 1.7 0.8 0.3 0.2 0.3 0.1 0.5 0.5 0.1 0.2 0.2 0.5 0.2 0.7 0 0.8 0.4 1-0.9 1.9zm7.4 0.1c-0.4-0.1-1-0.5-1-0.9-0.1-0.1 0.1-0.6 0.1-0.8 0-0.9 0.1-1.2 1.1-1.9 0.4-0.3 0.8-0.8 1.3-0.5 0.8 0.5 1.2 0.4 1.2 0.8 0 0.4-0.6 0.9-0.8 1.2-0.2 0.3-0.4 0.3-0.6 0.4 0 0.1-0.4 0.5-0.5 0.6-0.3 0.4-0.4 0.8-0.8 1.1zm-1.1-4.5l0.2-0.2c0.1-0.1 0.1-0.2 0.1-0.3 0.3-0.3 0.9-0.8 1.2-1 0.4-0.1 0.9 0 1.2 0.2 0.2 0.1 0.7 0.4 0.8 0.7-0.1 0-1-0.4-1.2-0.4-0.4 0-0.9 0.1-1.3 0.4-0.1 0.1-0.8 0.5-0.9 0.6zm-5.3 0.1c-0.2 0-0.2-0.1-0.8-0.5-0.2-0.1-0.5-0.2-0.8-0.4-0.6-0.3-1.4 0-2 0.3 0.2-0.4 0.4-0.4 0.8-0.7 1.2-0.9 2.8 0.9 2.8 1.3z"/>
	</g>
</svg>